<svg xmlns="http://www.w3.org/2000/svg" viewBox="0 0 24 24" id="jekyll">
  <path d="M12.99 10.284c-.877.398-1.524.293-2.312.756-.787.461-1.184 1.103-1.184 1.103l-3.205 8.362c-.347.944.167 2.05 1.121 2.42a1.875 1.875 0 0 0 2.404-1.056l5.013-13.094s-.961 1.109-1.837 1.509zm-4.089 6.665v.009a.296.296 0 0 1-.396-.155.296.296 0 0 1 .153-.397c.154-.07.334 0 .397.153.075.15.009.314-.154.39zm1.172 2.18c-.104.043-.224 0-.265-.104a.204.204 0 0 1 .105-.265c.104-.041.224 0 .265.105.041.104-.001.222-.105.264zm-.137-2.983a.582.582 0 0 1-.762-.285l.013.001a.583.583 0 0 1 .286-.758.572.572 0 0 1 .748.285.585.585 0 0 1-.285.757zm.541-3.55c-.104.042-.225 0-.264-.104a.205.205 0 0 1 .103-.267c.105-.042.225 0 .265.105.043.104 0 .226-.104.266zm1.372 1.557a.295.295 0 0 1-.398-.155.293.293 0 0 1 .154-.397v.003a.294.294 0 0 1 .397.15.3.3 0 0 1-.153.399z"></path>
  <path d="M12.758.489a.269.269 0 0 0 0 .138s.149.976-.023 1.413L5.66 20.449a2.625 2.625 0 0 0 1.527 3.376 2.642 2.642 0 0 0 3.399-1.493l7.074-18.41c.138-.356.93-1.057.93-1.057.035-.035.069-.069.092-.103v-.011c0-.012.012-.012.012-.023.184-.471-.999-1.367-2.63-1.998-1.631-.632-3.112-.758-3.296-.276.001 0-.01.012-.01.035z" opacity=".1"></path>
  <linearGradient id="a" x1="-67.303" x2="-67.293" y1="133.982" y2="133.98" gradientTransform="matrix(561.0148 0 0 -1011.5933 37766.61 135546.234)" gradientUnits="userSpaceOnUse">
    <stop offset="0" stop-color="#919191"></stop>
    <stop offset="1" stop-color="#fff"></stop>
  </linearGradient>
  <path fill="url(#a)" d="M12.551.328a.269.269 0 0 0 0 .138s.149.976-.023 1.413l-7.074 18.41c-.505 1.355.172 2.86 1.528 3.376s2.86-.149 3.399-1.493l7.074-18.41c.138-.356.93-1.057.93-1.057.035-.035.069-.069.092-.103V2.59c0-.012.012-.012.012-.023.184-.471-.999-1.367-2.63-1.998-1.631-.632-3.112-.758-3.296-.276-.001.012-.001.023-.012.035z"></path>
  <linearGradient id="b" x1="-69.037" x2="-69.028" y1="134.562" y2="134.56" gradientTransform="matrix(373.6914 0 0 -614.1078 25807.02 82650.406)" gradientUnits="userSpaceOnUse">
    <stop offset="0" stop-color="#900"></stop>
    <stop offset="1" stop-color="#e80000"></stop>
  </linearGradient>
  <path fill="url(#b)" d="M14.779 8.654 9.668 21.93a1.9 1.9 0 0 1-2.446 1.068c-.976-.379-1.493-1.493-1.137-2.446l3.261-8.487s.402-.655 1.206-1.125c.804-.471 1.458-.368 2.343-.758.896-.391 1.884-1.528 1.884-1.528z"></path>
  <path fill="#333" d="M17.257 2.183c.102-.266-.631-.796-1.637-1.184-1.006-.388-1.903-.488-2.005-.222-.102.266.631.796 1.637 1.184 1.006.389 1.903.488 2.005.222z"></path>
  <path fill="#FFF" d="M12.503.464s.148.973-.023 1.409L5.452 20.231a2.621 2.621 0 0 0 1.518 3.367c.228.092.468.149.707.16a2.652 2.652 0 0 1-.879-3.023L13.69 2.743s-.947-.881-1.187-2.279z" opacity=".3"></path>
  <g fill="#FFF" opacity=".5" transform="translate(420.01 104.5)">
    <ellipse cx="-409.766" cy="-92.194" rx=".205" ry=".206"></ellipse>
    <ellipse cx="-408.431" cy="-90.717" rx=".308" ry=".309"></ellipse>
    <ellipse cx="-410.473" cy="-88.953" rx=".582" ry=".584"></ellipse>
    <ellipse cx="-411.409" cy="-87.877" rx=".308" ry=".309"></ellipse>
    <ellipse cx="-410.188" cy="-85.586" rx=".205" ry=".206"></ellipse>
  </g>
</svg>
